<?xml version="1.0" standalone="no"?>
<!DOCTYPE svg PUBLIC "-//W3C//DTD SVG 20010904//EN"
 "http://www.w3.org/TR/2001/REC-SVG-20010904/DTD/svg10.dtd">
<svg version="1.0" xmlns="http://www.w3.org/2000/svg"
 width="1856.000000pt" height="1856.000000pt" viewBox="0 0 1856.000000 1856.000000"
 preserveAspectRatio="xMidYMid meet">
<metadata>
Created by potrace 1.14, written by Peter Selinger 2001-2017
</metadata>
<g transform="translate(0.000000,1856.000000) scale(0.100000,-0.100000)"
fill="#000000" stroke="none">
<path d="M6425 18129 c-22 -6 -47 -13 -55 -16 -8 -3 -21 -7 -29 -9 -33 -6
-149 -71 -203 -111 -89 -68 -207 -191 -263 -274 -27 -41 -52 -76 -55 -79 -30
-29 -30 -49 -30 -2285 0 -1386 4 -2242 9 -2253 6 -9 24 -55 41 -102 18 -47 35
-89 38 -95 4 -5 7 -15 8 -21 3 -20 95 -226 142 -319 104 -205 286 -471 423
-616 97 -104 121 -128 170 -175 62 -58 198 -169 249 -204 19 -13 37 -27 40
-30 12 -13 102 -70 110 -70 6 0 10 -3 10 -8 0 -4 13 -13 30 -20 16 -7 45 -24
65 -37 19 -14 35 -21 35 -17 0 4 4 3 8 -3 8 -11 91 -54 107 -56 6 -1 22 -10
38 -21 15 -11 27 -17 27 -14 0 3 22 -6 49 -19 27 -14 55 -25 63 -25 8 0 18 -4
24 -10 5 -5 18 -11 29 -13 11 -2 32 -9 47 -15 15 -6 53 -18 85 -27 32 -9 65
-19 73 -22 18 -7 26 -9 60 -16 14 -3 32 -8 40 -11 8 -3 29 -8 45 -11 93 -18
144 -26 175 -31 19 -2 51 -7 70 -10 19 -3 55 -7 80 -9 25 -3 70 -7 100 -11 30
-3 72 -7 93 -9 21 -1 41 -6 45 -9 3 -4 7 -246 9 -539 2 -518 9 -2199 18 -4472
3 -616 7 -1621 9 -2233 2 -613 7 -1116 10 -1119 3 -3 1 -15 -5 -25 -7 -14 -8
-23 -1 -30 7 -7 7 -19 2 -33 -5 -13 -7 -25 -5 -27 5 -4 6 -41 6 -223 0 -77 2
-417 3 -755 l2 -615 63 -100 c35 -55 76 -112 92 -127 16 -16 27 -28 25 -28 -9
0 112 -109 169 -152 33 -25 87 -59 120 -75 95 -48 137 -54 380 -55 254 -1 309
8 415 64 145 77 306 241 419 425 l32 52 5 1198 c4 903 13 2751 14 2848 0 6 -1
24 -3 40 -1 17 1 38 6 48 4 9 4 17 0 17 -4 0 -8 18 -9 40 0 22 3 40 8 40 5 0
6 5 2 12 -9 15 -8 153 1 168 3 5 3 10 -2 10 -4 0 -8 16 -8 35 0 19 3 35 6 35
3 0 3 23 -1 50 -4 28 -4 52 -1 55 2 3 4 24 2 48 -1 23 -1 60 0 82 1 22 1 48 1
58 -1 9 -2 23 -2 30 0 6 1 428 4 937 4 741 15 3360 18 4153 l1 167 26 2 c14 0
37 2 51 4 14 2 45 5 70 8 25 2 63 7 85 10 22 3 63 8 90 11 28 3 68 8 90 12 22
3 49 7 60 9 11 1 20 3 20 4 0 1 11 3 25 5 46 5 224 54 330 91 58 20 111 37
118 37 6 0 12 4 12 8 0 4 11 10 25 13 26 7 219 100 308 150 65 35 236 148 266
175 13 11 27 21 30 21 3 0 17 10 31 23 14 12 48 40 75 61 54 43 281 269 329
326 15 19 54 69 85 110 31 41 58 77 61 80 5 5 13 17 58 89 15 24 33 49 40 57
7 7 12 15 10 16 -1 2 14 30 33 63 31 53 75 142 122 245 60 132 131 350 143
440 2 19 6 46 9 60 5 24 11 98 21 270 3 41 6 989 8 2105 l4 2030 -37 57 c-20
32 -39 58 -43 58 -5 0 -8 5 -8 11 0 29 -164 215 -240 271 -61 45 -173 100
-230 113 -3 1 -25 7 -49 14 -23 7 -46 10 -49 7 -3 -3 -11 -1 -18 5 -9 7 -69
12 -156 13 -148 1 -242 -7 -300 -25 -18 -6 -40 -13 -48 -16 -8 -2 -16 -4 -18
-3 -1 0 -16 -7 -32 -15 -17 -9 -30 -12 -30 -8 0 5 -4 3 -8 -2 -4 -6 -29 -24
-57 -40 -27 -15 -68 -42 -90 -59 -34 -27 -56 -48 -130 -127 -8 -9 -15 -21 -15
-27 0 -7 -4 -12 -8 -12 -5 0 -30 -33 -57 -72 -27 -40 -57 -83 -68 -95 -11 -13
-21 -41 -23 -65 -4 -54 -16 -613 -18 -855 0 -101 -5 -183 -9 -183 -4 0 -3 -8
2 -19 6 -10 8 -21 5 -23 -3 -3 -7 -129 -10 -279 -5 -288 -12 -663 -13 -690 -1
-15 -42 -16 -438 -15 -428 1 -436 1 -439 21 -3 18 -8 247 -19 865 -16 849 -26
1080 -50 1180 -3 14 -8 36 -11 49 -11 51 -141 231 -213 296 -19 16 -39 35 -45
40 -49 45 -150 102 -230 129 -144 49 -362 66 -515 41 -90 -15 -241 -63 -241
-77 0 -4 -5 -8 -10 -8 -18 0 -112 -64 -168 -114 -28 -27 -79 -85 -112 -129
-34 -45 -67 -90 -75 -100 -8 -9 -15 -21 -15 -26 0 -5 -7 -15 -16 -22 -29 -24
-37 -63 -40 -199 -2 -74 -6 -270 -9 -435 -4 -165 -8 -374 -10 -465 -2 -91 -6
-327 -10 -525 -4 -198 -8 -397 -9 -441 l-1 -81 -437 0 c-311 0 -438 3 -439 11
-2 18 -7 198 -14 531 -17 757 -16 679 -12 763 1 28 0 52 -3 52 -3 0 -6 71 -6
158 -1 86 -3 251 -5 366 l-4 209 -42 58 c-24 32 -43 61 -43 64 0 3 -11 18 -25
33 -14 15 -25 30 -25 33 0 17 -125 148 -189 198 -69 54 -190 109 -292 131
-109 25 -397 36 -464 19z m4654 -4489 c-1 -52 -9 -120 -16 -150 -8 -30 -15
-61 -15 -67 -1 -7 -6 -13 -11 -13 -6 0 -7 -3 -4 -7 10 -9 -57 -127 -109 -195
-48 -62 -89 -105 -131 -137 -14 -12 -22 -21 -18 -21 4 0 -28 -24 -71 -54 -185
-126 -251 -142 -624 -152 -91 -3 -169 -5 -175 -5 -5 0 -26 1 -45 2 -19 0 -39
0 -45 -1 -30 -4 -1038 0 -1043 4 -3 3 -11 1 -19 -5 -7 -6 -13 -8 -13 -3 0 5
-69 9 -153 10 -160 1 -333 10 -358 18 -8 3 -25 7 -39 10 -38 6 -113 37 -134
55 -10 9 -19 14 -20 11 0 -3 -35 17 -76 45 -78 51 -230 191 -230 212 0 6 -4
13 -8 15 -13 5 -67 89 -91 138 -26 57 -52 130 -45 130 2 0 0 9 -6 19 -14 27
-17 220 -3 229 6 4 797 7 1758 7 l1746 0 -2 -95z"/>
</g>
</svg>
